<?xml version="1.0" encoding="UTF-8"?>
<!-- Generator: Adobe Illustrator 23.1.1, SVG Export Plug-In . SVG Version: 6.00 Build 0)  -->
<svg version="1.1" id="Calque_1" xmlns="http://www.w3.org/2000/svg" xmlns:xlink="http://www.w3.org/1999/xlink" x="0px" y="0px" viewBox="0 0 252.41 83.48" style="enable-background:new 0 0 252.41 83.48;" xml:space="preserve">
<style type="text/css">
	.st0{fill:#FFFFFF;}
</style>
<g>
	<path class="st0" d="M40.35,48.96c0,11.35-8.97,20.1-19.79,20.1c-6.83,0-12.27-3.3-15.49-8.44v22.86H0V29.79h5.06v7.52   c3.22-5.14,8.67-8.44,15.49-8.44C31.37,28.87,40.35,37.61,40.35,48.96z M35.28,48.96c0-8.51-6.6-15.19-15.11-15.19   c-8.51,0-15.11,6.67-15.11,15.19c0,8.51,6.6,15.19,15.11,15.19C28.69,64.15,35.28,57.48,35.28,48.96z"/>
	<path class="st0" d="M47.63,17.97c0-1.99,1.61-3.68,3.68-3.68c2.07,0,3.68,1.69,3.68,3.68c0,2-1.61,3.68-3.68,3.68   C49.25,21.66,47.63,19.97,47.63,17.97z M48.79,29.79h5.06v38.35h-5.06V29.79z"/>
	<path class="st0" d="M108.35,83.48h-6.06L78.78,52.34l-11.97,15.8h-6.06l15.03-19.87L61.75,29.79h6.06L108.35,83.48z"/>
	<path class="st0" d="M139.07,22.58v38.35h-5.06v-7.52c-3.22,5.14-8.67,8.44-15.49,8.44c-10.82,0-19.79-8.75-19.79-20.1   s8.97-20.1,19.79-20.1c6.83,0,12.27,3.3,15.49,8.44v-7.52H139.07z M134.01,41.75c0-8.51-6.6-15.19-15.11-15.19   c-8.51,0-15.11,6.67-15.11,15.19c0,8.51,6.6,15.19,15.11,15.19C127.41,56.94,134.01,50.27,134.01,41.75z"/>
	<path class="st0" d="M182.79,37.38v23.55h-5.06V37.38c0-6.83-3.76-10.82-10.43-10.82c-6.75,0-12.43,3.99-12.43,14.27v20.1h-5.06   V22.58h5.06v5.98c2.99-4.83,7.44-6.9,12.89-6.9C177.12,21.66,182.79,27.79,182.79,37.38z"/>
	<path class="st0" d="M190.31,41.75c0-11.35,8.97-20.1,20.17-20.1c11.2,0,20.17,8.74,20.17,20.1s-8.97,20.1-20.17,20.1   C199.29,61.85,190.31,53.1,190.31,41.75z M225.6,41.75c0-8.51-6.6-15.19-15.11-15.19c-8.51,0-15.11,6.67-15.11,15.19   c0,8.51,6.6,15.19,15.11,15.19C219,56.94,225.6,50.27,225.6,41.75z"/>
	<path class="st0" d="M252.33,6.75c0-3.72-3.03-6.75-6.75-6.75h-74.03h-65.67L80.12,33.58l3.13,4.14L108.35,5h63.07h74.16   c0.97,0,1.75,0.79,1.75,1.75l0.08,69.98c0,0.97-0.79,1.75-1.75,1.75H114.06l3.78,5h127.83c3.72,0,6.75-3.03,6.75-6.75L252.33,6.75z   "/>
</g>
</svg>